# xmcd
#
# Track frame offsets: 
#        150
#        13157
#        24665
#        38077
#        51762
#        64782
#        75532
#        87502
#        100462
#        113265
#        125132
#        138785
#        150820
#        162410
#        175477
#        189022
#        200480
#        212592
#        224000
#        235352
#
# Disc length: 3298 seconds
#
# Revision: 17
# Processed by: cddbd v1.5.2PL0 Copyright (c) Steve Scherf et al.
# Submitted via: ExactAudioCopyFreeDBPlugin 1.0
#
DISCID=0f0ce014
DTITLE=Robert Johnson - Robert Johnson:  The Complete Recordings (Root
DTITLE=s n' Blues)
DYEAR=1990
DGENRE=Blues
TTITLE0=Kind Hearted Woman Blues (take 1)
TTITLE1=Kind Hearted Woman Blues (take 2)
TTITLE2=I Believe I'll Dust My Broom
TTITLE3=Sweet Home Chicago
TTITLE4=Rambling on My Mind (take 1)
TTITLE5=Rambling on My Mind (take 2)
TTITLE6=When You Got a Good Friend (take 1)
TTITLE7=When You Got a Good Friend (take 2)
TTITLE8=Come on in My Kitchen (take 1)
TTITLE9=Come on in My Kitchen (take 2)
TTITLE10=Terraplane Blues
TTITLE11=Phonograph Blues (take 1)
TTITLE12=Phonograph Blues (take 2)
TTITLE13=32-20 Blues
TTITLE14=They're Red Hot
TTITLE15=Dead Shrimp Blues
TTITLE16=Cross Road Blues (take 1)
TTITLE17=Cross Road Blues (take 2)
TTITLE18=Walking Blues
TTITLE19=Last Fair Deal Gone Down
EXTD=
EXTT0=
EXTT1=
EXTT2=
EXTT3=
EXTT4=
EXTT5=
EXTT6=
EXTT7=
EXTT8=
EXTT9=
EXTT10=
EXTT11=
EXTT12=
EXTT13=
EXTT14=
EXTT15=
EXTT16=
EXTT17=
EXTT18=
EXTT19=
PLAYORDER=
